<svg xmlns="http://www.w3.org/2000/svg" xmlns:svg="http://www.w3.org/2000/svg" id="svg5" width="1024" height="768" version="1.1" viewBox="0 0 1024 768"><defs id="defs2"><marker style="overflow:visible" id="marker13081" orient="auto" refX="0" refY="0"><path id="path13079" d="M 8.7185878,4.0337352 L -2.2072895,0.016013256 L 8.7185884,-4.0017078 C 6.9730900,-1.6296469 6.9831476,1.6157441 8.7185878,4.0337352 z" transform="scale(0.3) rotate(180) translate(-2.3,0)" style="stroke:context-stroke;fill-rule:evenodd;fill:context-stroke;stroke-width:.625;stroke-linejoin:round"/></marker><marker style="overflow:visible" id="marker13071" orient="auto" refX="0" refY="0"><path transform="scale(0.2) rotate(180) translate(6,0)" style="fill-rule:evenodd;fill:context-stroke;stroke:context-stroke;stroke-width:1pt" id="path13069" d="M 0.0,0.0 L 5.0,-5.0 L -12.5,0.0 L 5.0,5.0 L 0.0,0.0 z"/></marker><marker style="overflow:visible" id="Arrow2Send" orient="auto" refX="0" refY="0"><path id="path7343" d="M 8.7185878,4.0337352 L -2.2072895,0.016013256 L 8.7185884,-4.0017078 C 6.9730900,-1.6296469 6.9831476,1.6157441 8.7185878,4.0337352 z" transform="scale(0.3) rotate(180) translate(-2.3,0)" style="stroke:context-stroke;fill-rule:evenodd;fill:context-stroke;stroke-width:.625;stroke-linejoin:round"/></marker><marker style="overflow:visible" id="marker13053" orient="auto" refX="0" refY="0"><path transform="scale(0.2) rotate(180) translate(6,0)" style="fill-rule:evenodd;fill:context-stroke;stroke:context-stroke;stroke-width:1pt" id="path13051" d="M 0.0,0.0 L 5.0,-5.0 L -12.5,0.0 L 5.0,5.0 L 0.0,0.0 z"/></marker><marker style="overflow:visible" id="Arrow1Send" orient="auto" refX="0" refY="0"><path transform="scale(0.2) rotate(180) translate(6,0)" style="fill-rule:evenodd;fill:context-stroke;stroke:context-stroke;stroke-width:1pt" id="path7325" d="M 0.0,0.0 L 5.0,-5.0 L -12.5,0.0 L 5.0,5.0 L 0.0,0.0 z"/></marker><marker id="ExperimentalArrow" orient="auto-start-reverse" refX="5" refY="3"><path style="fill:context-stroke" id="path7563" d="m 10,3 -10,3 0,-6 z"/></marker><linearGradient id="linearGradient7831"><stop style="stop-color:#0ff;stop-opacity:1" id="stop7829" offset="0"/></linearGradient><marker style="overflow:visible" id="TriangleOutL" orient="auto" refX="0" refY="0"><path transform="scale(0.8)" style="fill-rule:evenodd;fill:context-stroke;stroke:context-stroke;stroke-width:1pt" id="path7452" d="M 5.77,0.0 L -2.88,5.0 L -2.88,-5.0 L 5.77,0.0 z"/></marker><marker style="overflow:visible" id="Arrow1Lend" orient="auto" refX="0" refY="0"><path transform="scale(0.8) rotate(180) translate(12.5,0)" style="fill-rule:evenodd;fill:context-stroke;stroke:context-stroke;stroke-width:1pt" id="path7313" d="M 0.0,0.0 L 5.0,-5.0 L -12.5,0.0 L 5.0,5.0 L 0.0,0.0 z"/></marker><rect id="rect3757" width="73.956" height="82.489" x="533.333" y="199.111"/></defs><g id="layer1"><g id="g14248"><text xml:space="preserve" style="font-style:normal;font-variant:normal;font-weight:700;font-stretch:normal;font-size:24px;line-height:1.25;font-family:'Courier New';-inkscape-font-specification:'Courier New, Bold';font-variant-ligatures:normal;font-variant-caps:normal;font-variant-numeric:normal;font-variant-east-asian:normal;fill:green;fill-opacity:1;stroke:none" id="text1117" x="49.733" y="256"><tspan id="tspan1115" x="49.733" y="256">Transfer(address indexed from, address indexed to, uint256 value)</tspan></text><text xml:space="preserve" style="font-style:normal;font-variant:normal;font-weight:700;font-stretch:normal;font-size:24px;line-height:1.25;font-family:'Courier New';-inkscape-font-specification:'Courier New, Bold';font-variant-ligatures:normal;font-variant-caps:normal;font-variant-numeric:normal;font-variant-east-asian:normal;fill:#d40000;fill-opacity:1;stroke:none" id="text4381" x="52.622" y="99.556"><tspan id="tspan4379" x="52.622" y="99.556">ddf252ad1be2c89b69c2b068fc378daa952ba7f163c4a11628f55a4df523b3ef</tspan></text><path style="fill:#0f0;fill-opacity:1;stroke:#1000dd;stroke-width:8.409;stroke-linecap:butt;stroke-linejoin:miter;stroke-miterlimit:4;stroke-dasharray:none;stroke-opacity:1;marker-end:url(#marker13081)" id="path7308" d="m 523.37778,121.87157 c 0,84.87603 0,84.87603 0,84.87603"/></g></g></svg>